<?xml version="1.0" encoding="utf-8"?>
<!-- Generator: Adobe Illustrator 23.0.3, SVG Export Plug-In . SVG Version: 6.00 Build 0)  -->
<svg version="1.1" id="Слой_1" xmlns="http://www.w3.org/2000/svg" xmlns:xlink="http://www.w3.org/1999/xlink" x="0px" y="0px"
	 viewBox="0 0 104.9 104.9" style="enable-background:new 0 0 104.9 104.9;" xml:space="preserve">
<style type="text/css">
	.st0{fill:#8A519C;}
</style>
<g>
	<path class="st0" d="M52.4,21.2c17.5,0.1,31.4,14.3,31.2,31.6c-0.2,17.2-14.2,30.7-31,30.8c-17.5,0-31.7-14.2-31.4-31.8
		C21.5,34.9,35.2,21.2,52.4,21.2z M81.1,52.4c0-15.5-12.4-28.5-28.4-28.8C37,23.4,23.9,36.1,23.6,52c-0.2,15.7,12.3,29,28.7,29.1
		C68.2,81.2,81.1,68.4,81.1,52.4z"/>
	<path class="st0" d="M38.3,43.7c0-1.4,0.4-2.5,1.3-3.4c0.9-0.8,1.9-1.4,3.1-1.6c0.7-0.1,1.3,0,1.9,0.5c1.9,1.6,3.3,3.6,4.3,5.8
		c0.4,1,0.2,1.8-0.6,2.5c-0.2,0.2-0.4,0.3-0.6,0.5c-1.2,0.9-1.6,1.8-1,3.3c0.7,1.8,1.8,3.3,3.3,4.6c1.2,1,2.5,1.8,3.9,2.4
		c1.3,0.5,2.2,0.3,3-0.8c1.2-1.6,2.7-1.9,4.5-0.8c1.4,1,2.8,2,4.2,3c1.2,0.9,1.4,1.9,0.7,3.3c-0.8,1.5-2,2.6-3.6,3.3
		c-1,0.4-2.1,0.4-3.1,0c-9.5-4.1-16.4-10.4-20.5-19.7C38.7,45.7,38.3,44.7,38.3,43.7z"/>
	<path class="st0" d="M66.2,50.9c0,0.4,0,0.7,0,1.1c0,0.4-0.2,0.7-0.7,0.7s-0.7-0.2-0.8-0.7c-0.2-1.2-0.3-2.5-0.6-3.6
		c-1.1-4.7-4.3-7.3-8.8-8.3c-0.8-0.2-1.7-0.3-2.5-0.4c-0.4-0.1-0.7-0.2-0.7-0.7s0.3-0.7,0.8-0.8c6.3-0.1,12.2,4.8,13.1,11
		C66.1,49.8,66.2,50.3,66.2,50.9C66.3,50.9,66.2,50.9,66.2,50.9z"/>
	<path class="st0" d="M62.8,50c0,0.2,0,0.4,0,0.6c0,0.6-0.2,0.8-0.8,0.8c-0.5,0-0.6-0.2-0.7-0.8c-0.2-1-0.4-2.1-0.7-3.1
		c-0.6-1.8-1.8-3-3.6-3.6c-1-0.4-2.1-0.6-3.1-0.8c-0.7-0.2-1-0.9-0.5-1.3c0.2-0.2,0.6-0.2,0.9-0.2c2.7,0.2,4.9,1.3,6.6,3.4
		C62.1,46.4,62.8,48.1,62.8,50z"/>
	<path class="st0" d="M59.5,49.5c0,0.1,0,0.3-0.1,0.5s-0.4,0.4-0.6,0.4c-0.2,0-0.4-0.2-0.6-0.3c-0.1-0.1-0.1-0.3-0.2-0.5
		c-0.3-1.9-1-2.6-2.9-3c-0.4-0.1-0.8-0.1-0.8-0.7c0-0.5,0.4-0.8,1-0.8c0.3,0,0.5,0,0.8,0.1C57.8,45.5,59.5,47.5,59.5,49.5z"/>
</g>
</svg>
