<?xml version="1.0" encoding="utf-8"?>
<!-- Generator: Adobe Illustrator 23.0.3, SVG Export Plug-In . SVG Version: 6.00 Build 0)  -->
<svg version="1.1" id="Слой_1" xmlns="http://www.w3.org/2000/svg" xmlns:xlink="http://www.w3.org/1999/xlink" x="0px" y="0px"
	 viewBox="0 0 104.9 104.9" style="enable-background:new 0 0 104.9 104.9;" xml:space="preserve">
<style type="text/css">
	.st0{fill:#3B4B9D;}
</style>
<g>
	<path class="st0" d="M83.6,52.5c0,17.2-14,31.1-31.2,31.1c-17.3,0-31.4-14.3-31.2-31.7c0.2-16.7,14.1-30.8,31.5-30.7
		C69.7,21.3,83.6,35.3,83.6,52.5z M25,52.4C25.2,68,37.6,79.9,52.5,79.9c14.4,0,27.2-11.7,27.3-27.5c0-15.2-12.2-27.5-27.6-27.5
		C37.4,24.8,25,37.3,25,52.4z"/>
	<path class="st0" d="M55.9,74.3c-3.4,0-6.7,0-10,0c0-7.4,0-14.7,0-22c-1.6,0-3.2,0-4.8,0c0-2.5,0-4.9,0-7.5c1,0,2.1,0,3.1,0
		c2,0,1.7,0.1,1.7-1.7c0-1.9-0.1-3.9,0.1-5.8c0.3-3.6,3.2-6.5,6.8-6.7c3.1-0.2,6.2-0.2,9.3-0.3c1.4,0,1.4,0,1.4,1.4
		c0,1.8,0,3.7,0,5.5c0,0.2,0,0.5,0,0.7c-0.4,0-0.7,0-1,0c-1.4,0-2.8,0-4.1,0c-1.7,0-2.5,0.9-2.5,2.5c0,1.2,0,2.5,0,3.7
		c0,0.5,0.1,0.6,0.6,0.6c2.1,0,4.2,0,6.3,0c0.2,0,0.5,0,0.8,0c-0.3,2.5-0.6,5-0.9,7.5c-2.3,0-4.5,0-6.7,0
		C55.9,59.6,55.9,66.9,55.9,74.3z"/>
</g>
</svg>
