<?xml version="1.0" encoding="utf-8"?>
<!-- Generator: Adobe Illustrator 23.0.3, SVG Export Plug-In . SVG Version: 6.00 Build 0)  -->
<svg version="1.1" id="Слой_1" xmlns="http://www.w3.org/2000/svg" xmlns:xlink="http://www.w3.org/1999/xlink" x="0px" y="0px"
	 viewBox="0 0 104.9 104.9" style="enable-background:new 0 0 104.9 104.9;" xml:space="preserve">
<style type="text/css">
	.st0{fill:#00AFD9;}
</style>
<g>
	<path class="st0" d="M54.4,70.9c-2,1.8-4,3.7-6,5.5c-3,2.7-5.8,2-7-1.9c-1.5-4.4-2.8-8.9-4.1-13.3c-0.3-1.1-0.9-1.7-2-2
		c-3.4-1.1-6.8-2.2-10.2-3.4c-2.2-0.8-3.8-2.2-3.9-4.6c-0.1-2.3,1.5-3.5,3.4-4.4c0.3-0.1,0.5-0.2,0.8-0.3c9.5-4,18.9-8,28.4-12
		c7.2-3,14.3-6,21.5-9.1c0.8-0.3,1.6-0.6,2.4-0.9c3.6-0.9,6.3,1.5,5.7,5.2c-0.9,5.3-2,10.5-3,15.7c-1.9,9.8-3.8,19.5-5.7,29.3
		c-1.1,5.6-5.7,7.3-10.2,3.8c-3.2-2.5-6.4-4.9-9.6-7.4C54.8,71.1,54.6,71,54.4,70.9z M54.2,64.6c0.5,0.4,1,0.7,1.4,1
		c4,3.1,8,6.2,12.1,9.2c1.5,1.2,2,1,2.3-0.8c2.3-11.6,4.6-23.2,6.8-34.8c0.6-3.3,1.3-6.5,2-10.2c-17.5,7.5-34.7,14.8-52.4,22.2
		C30.9,52.7,35,54,39,55.4c1.1,0.4,2,0.3,3-0.3c9.1-5.6,18.2-11.3,27.3-16.9c0.5-0.3,1.2-0.3,1.8-0.4c-0.2,0.6-0.4,1.2-0.8,1.7
		c-0.2,0.3-0.6,0.6-0.9,0.8c-7,6.6-14.1,13.1-21.1,19.7c-0.4,0.4-0.9,0.8-1,1.3c-0.6,3.5-1.1,7-1.8,11
		C48.7,69.6,51.4,67.1,54.2,64.6z"/>
</g>
</svg>
