<?xml version="1.0" encoding="utf-8"?>
<!-- Generator: Adobe Illustrator 23.0.3, SVG Export Plug-In . SVG Version: 6.00 Build 0)  -->
<svg version="1.1" id="Слой_1" xmlns="http://www.w3.org/2000/svg" xmlns:xlink="http://www.w3.org/1999/xlink" x="0px" y="0px"
	 viewBox="0 0 104.9 104.9" style="enable-background:new 0 0 104.9 104.9;" xml:space="preserve">
<style type="text/css">
	.st0{fill:#20171B;}
</style>
<g>
	<path class="st0" d="M67.6,21.2c1.2,0.2,2.4,0.4,3.6,0.7c4.7,1.4,8.2,4.3,10.5,8.7c1.4,2.6,1.9,5.4,1.9,8.3c0,9,0,18.1,0,27.1
		c0,4-1.1,7.6-3.5,10.7c-3.5,4.4-8.1,6.7-13.7,6.8c-9.3,0.1-18.5,0-27.8,0c-8.2,0-15-5.5-16.8-13.5c-0.4-1.2-0.6-2.5-0.6-3.8
		c0-9.3,0-18.5,0-27.7c0-6,2.6-10.8,7.6-14.3c2.4-1.7,5-2.6,7.9-2.9c0.2,0,0.3-0.1,0.5-0.1C47.3,21.2,57.5,21.2,67.6,21.2z M78,52.4
		L78,52.4c0.1-4.5,0.1-9,0.1-13.4c0-1.8-0.2-3.6-1.1-5.3c-2.3-4.6-6-6.8-11.1-6.9c-9,0-18,0-27,0c-1.8,0-3.6,0.3-5.3,1.1
		c-4.5,2.2-6.8,5.9-6.8,10.8c-0.1,9.1,0,18.3,0,27.4c0,2.2,0.5,4.3,1.6,6.1c2.4,3.8,5.8,5.7,10.3,5.7c7.4,0,14.8,0,22.2,0
		c2.4,0,4.9,0.1,7.3-0.2c5.1-0.6,9.6-5.4,9.7-10.5C78.1,62.3,78,57.3,78,52.4z"/>
	<path class="st0" d="M52.4,36.3c9,0.1,16,7.3,16,16.1c0,8.9-7.4,16.1-16.2,16s-16-7.4-15.9-16.2C36.4,43.4,43.7,36.2,52.4,36.3z
		 M52.4,62.9c5.8,0,10.6-4.7,10.6-10.5s-4.7-10.5-10.6-10.5c-5.8,0-10.5,4.7-10.5,10.5S46.6,62.9,52.4,62.9z"/>
	<path class="st0" d="M69.1,31.6c2.2,0,4,1.8,4.1,4c0,2.1-1.8,4-4,4c-2.3,0-4.1-1.8-4.1-4C65,33.5,66.8,31.7,69.1,31.6z"/>
</g>
</svg>
