<?xml version="1.0" encoding="utf-8"?>
<!-- Generator: Adobe Illustrator 23.0.3, SVG Export Plug-In . SVG Version: 6.00 Build 0)  -->
<svg version="1.1" id="Слой_1" xmlns="http://www.w3.org/2000/svg" xmlns:xlink="http://www.w3.org/1999/xlink" x="0px" y="0px"
	 viewBox="0 0 104.9 104.9" style="enable-background:new 0 0 104.9 104.9;" xml:space="preserve">
<style type="text/css">
	.st0{fill:#7DDA03;}
</style>
<g>
	<path class="st0" d="M21.2,58.7c0.1-0.3,0.1-0.6,0.2-0.9c0.4-1.4,1.3-2.4,2.4-3.3c1.5-1.2,3.1-2.1,4.9-2.8c3.1-1.2,6.1-2.3,9.2-3.5
		c0.5-0.2,1-0.4,1.4-0.6c0.5-0.2,1-0.2,1.5,0s0.8,0.6,0.9,1.1c0.1,1-0.2,1.8-0.9,2.5c-0.1,0.1-0.2,0.2-0.3,0.2c-2.1,1-4.2,2-6.3,2.9
		c-0.1,0.1-0.3,0.1-0.5,0.1c-0.8,0-1.7,0.1-2.5,0.1c-0.1,0-0.3,0-0.4-0.1C29.9,54.1,29,53.9,28,54c-0.5,0-1,0.2-1.4,0.6
		c-0.4,0.4-0.9,0.8-1.3,1.1c-0.7,0.6-1.4,1.3-1.6,2.3c-0.1,0.4-0.1,0.9,0,1.4c0.1,0.6,0.5,1,1.2,0.8c0.5-0.1,1-0.3,1.5-0.4
		c1.4-0.5,2.8-0.7,4.2-0.4c2,0.4,2.3,1.9,1.9,3.3c-0.2,0.8-0.7,1.3-1.4,1.8c-1.1,0.8-2.3,1.1-3.6,1.3c-0.1,0-0.3,0-0.4-0.1
		c-0.4-0.1-0.8-0.2-1.2-0.2c-0.2,0-0.5,0.1-0.7,0.2c-0.5,0.3-0.7,1.3-0.4,2.1c0.2,0.6,0.7,0.8,1.5,0.6c0.6-0.1,1.1-0.5,1.5-0.9
		c0.5-0.4,1-0.8,1.5-1.2c0.7-0.4,1.5-0.6,2.3-0.4c1.7,0.4,2.5,2.2,1.6,3.7c-0.8,1.4-1.9,2.3-3.5,2.7c-0.7,0.2-1.5,0-2.1-0.3
		c-0.1,0-0.2-0.1-0.4-0.2c0.6,1.1,1.3,2,2.3,2.7c0.7,0.5,1.5,0.9,2.3,0.9c0.6,0,1.2-0.1,1.7-0.2c0.2,0,0.5-0.1,0.7-0.1
		c0-0.6,0.1-1.2,0.1-1.9c0.2-2.8,0.5-5.6,1.1-8.3c0.6-2.7,1.9-5,3.4-7.2c1.2-1.8,2.6-3.4,4-5.1c1-1.1,1.6-2.5,1.8-3.9
		c0.1-0.9,0.1-1.7,0.2-2.6c0.1-0.6,0.3-1.2,0.5-1.8c0.6-1.3,2.2-1.8,3.6-1.2c0.6,0.3,0.8,0.8,0.9,1.3c0,0.7,0,1.5,0,2.2
		c0,0.4,0,0.9,0,1.3c0,1.4,0.7,2.2,2.1,2.2c1.1,0,2.1,0,3.2,0c2.5,0,4.9,0,7.4,0c0.5,0,1-0.1,1.4-0.2c0.9-0.3,1.3-0.9,1.3-1.8
		c0-0.8,0-1.6,0-2.4c0-0.6,0.1-1.1,0.3-1.7c0.4-1.3,1.3-1.8,2.7-1.8c1.2,0,2.1,0.7,2.4,1.9c0.1,0.5,0.2,1,0.2,1.5
		c-0.1,1.2,0.3,2.2,1,3.2c0.7,0.9,1.6,1.6,2.6,2.2c1.4,0.9,2.7,1.8,3.8,3.1c1.8,1.9,3,4.2,3.8,6.7c0.8,2.4,1.3,5,1.4,7.5
		c0.1,2.2,0.1,4.4,0.2,6.7c0,0.8,0.1,1.6,0,2.4c0,0.4,0,0.9-0.1,1.3c-0.3,1.4-1.2,2.2-2.7,2.3c-0.2,0-0.3,0.1-0.4,0.2
		c-0.8,1.6-2.8,2.3-4.5,1.6c-0.8-0.3-1.2-0.9-1.5-1.7c-0.1-0.2-0.1-0.3-0.4-0.3c-8,0-16.1,0-24.1,0c-0.8,0-1.6,0.3-2.3,0.7
		c-0.6,0.4-0.9,0.9-0.9,1.6c-0.2,0-0.3,0-0.4,0c-1.9,0-3.8,0-5.7,0c-0.3,0-0.4,0-0.5-0.3c-0.3-0.7-0.8-1-1.5-1.2
		c-0.4-0.2-0.9-0.2-1.3-0.4c-0.8-0.4-1.4-1.1-1.9-1.9c-0.2-0.4-0.5-0.8-0.7-1.2c-0.1-0.2-0.2-0.3-0.4-0.2c-1.7,0.1-3.4-0.1-4.9-0.8
		c-2.5-1.1-3.9-3-4.3-5.7c-0.1-0.6-0.3-1.1-0.8-1.5c-0.5-0.3-0.9-0.8-1.2-1.3c-0.9-1.3-1-2.7-0.1-4.2c0.1-0.2,0.1-0.4,0-0.6
		c-0.7-1.3-1.4-2.7-1.7-4.1c0-0.1-0.1-0.3-0.1-0.4C21.2,59.3,21.2,59,21.2,58.7z M58.7,77.8c6.5,0,11.8-5.3,11.8-11.8
		c0-6.6-5.3-11.8-11.8-11.8S46.9,59.5,46.9,66S52.2,77.8,58.7,77.8z"/>
	<path class="st0" d="M25.8,45.5c0-3.2,1.5-5.9,4-8.1c1.7-1.4,3.6-2.5,5.7-3.4c7-3,13.9-6.3,20.8-9.6c1.1-0.5,2.3-1.1,3.4-1.7
		c1.4-0.7,2.9-1,4.4-1.2c2-0.3,3.9-0.4,5.9-0.2c2.9,0.2,5.6,1.3,7.9,3.1c0.6,0.5,1.2,1.1,1.8,1.6c0.8,0.6,1,1.4,1.2,2.3
		c0,0.2,0.1,0.4,0.1,0.6c0,0.6-0.2,1.1-0.8,1.3c-1.4,0.5-2.7,1.1-4.1,1.6c-1.5,0.5-3.1,1-4.6,1.5c-0.2,0.1-0.4,0.1-0.5,0.2
		c-1,0.4-1.9,0.2-2.5-0.7c-0.2-0.3-0.4-0.5-0.6-0.8c-1.1-1.4-2.2-1.8-3.9-1.3c-1.6,0.5-3.1,1.1-4.6,1.7c-5.4,2.1-10.7,4.2-16.1,6.4
		c-0.9,0.3-1.6,0.9-2.2,1.6c-0.6,1-0.9,1.8-0.9,2.8c0,0.6-0.1,1.3-0.3,1.9c-0.2,0.8-0.7,1.3-1.5,1.6c-2.5,1.1-5.1,2.2-7.6,3.2
		c-0.6,0.2-1.2,0.4-1.9,0.4c-1.3,0.1-2.2-0.6-2.7-1.7C25.9,47.8,25.7,46.9,25.8,45.5z"/>
	<path class="st0" d="M72.3,36.8c-0.2,0-0.5-0.1-0.8-0.2c-0.4-0.1-0.7-0.5-0.6-0.9s0.2-0.7,0.3-1c0-0.1,0.2-0.1,0.3-0.2
		c2.8-1.1,5.7-2.3,8.5-3.4c0.3-0.1,0.7-0.1,1.1-0.1c0.5,0,0.8,0.4,0.9,0.8c0,0.1,0.1,0.2,0.1,0.4c0,0.8,0,0.9-0.7,1.2
		c-2.3,1-4.7,2-7,3C73.7,36.7,73.1,36.8,72.3,36.8z"/>
	<path class="st0" d="M58.7,73.2c-3.9,0-7.2-3.2-7.2-7.1c0-4,3.2-7.2,7.1-7.2s7.2,3.2,7.2,7.1C65.9,69.9,62.7,73.1,58.7,73.2z"/>
</g>
</svg>
