<?xml version="1.0" encoding="utf-8"?>
<!-- Generator: Adobe Illustrator 23.0.3, SVG Export Plug-In . SVG Version: 6.00 Build 0)  -->
<svg version="1.1" id="Слой_1" xmlns="http://www.w3.org/2000/svg" xmlns:xlink="http://www.w3.org/1999/xlink" x="0px" y="0px"
	 viewBox="0 0 85 85" style="enable-background:new 0 0 85 85;" xml:space="preserve">
<style type="text/css">
	.st0{fill:#FFFFFF;}
</style>
<path class="st0" d="M15.2,73.7c-0.9-0.4-1.2-1.2-1.2-2.2c0.1-8.4,3.1-15.6,9.3-21.3c1.3-1.2,2.8-2.2,4.3-3.3
	c0.8-0.6,1.8-0.3,2.4,0.5c0.5,0.8,0.3,1.8-0.5,2.3c-2.1,1.4-4,2.9-5.7,4.8c-3.8,4.3-5.8,9.3-6.3,15c0,0.3,0,0.5,0,0.8
	c16.7,0,33.4,0,50.2,0c-0.5-8.3-4.1-14.9-10.8-19.8c-0.8,0.7-1.5,1.3-2.2,1.9c-3.2,2.5-6.9,3.9-11,4.1c-0.3,0-0.6,0.1-0.9,0.1
	c-1.1,0.1-1.9-0.6-1.9-1.6s0.7-1.7,1.8-1.7c4.3-0.1,8.1-1.6,11.2-4.6c1.9-1.8,3.3-4.1,4.2-6.7c-1.2,0-2.3,0-3.4,0
	c-0.1,0-0.3,0.3-0.4,0.4c-2,4-5.3,6.6-9.8,7.3c-5.5,1-11.4-2.1-13.7-7.2c-0.2-0.5-0.5-0.6-1-0.6c-1.7,0-3.4,0-5.1,0
	c-2.3,0-3.6-1.3-3.6-3.6c0-1.8,0-3.6,0-5.4c0-1.2,0.4-2.2,1.4-3c0.2-0.1,0.3-0.4,0.3-0.7c0.7-8,6.3-14.9,14-17.2
	c9.7-2.7,19.8,2,23.8,11.2c0.8,1.9,1.3,4,1.6,6.1c0,0.2,0.2,0.5,0.4,0.7c0.9,0.7,1.4,1.7,1.4,2.8c0,1.9,0,3.7,0,5.6
	c0,1.5-0.6,2.6-2,3.2c-0.2,0.1-0.3,0.3-0.4,0.4c-0.6,2-1.4,3.9-2.6,5.8c0.6,0.5,1.2,0.9,1.8,1.4c5.5,4.6,8.8,10.4,9.9,17.5
	c0.2,1.6,0.2,3.1,0.4,4.7c0.1,1-0.3,1.8-1.2,2.2C51.6,73.7,33.4,73.7,15.2,73.7z M52.2,34L52.2,34c-0.1-1.1-0.1-2.2-0.1-3.3
	c-0.2-5.5-5.2-9.8-10.7-9.2c-4.9,0.6-8.5,4.6-8.6,9.5c0,2,0,4.1,0,6.1c0,0.6,0.1,1.1,0.2,1.7c0.9,4.5,4.8,7.8,9.4,7.8
	c4.5,0.1,8.5-3.1,9.5-7.6C52.2,37.3,52.1,35.6,52.2,34z M58.7,29.3c-0.4-6.8-6.6-14.5-16.1-14.6c-9.3-0.1-15.8,7.4-16.3,14.6
	c1.1,0,2.2,0,3.3,0c0.5-3.1,1.8-5.8,4.1-7.9s5.1-3.2,8.2-3.4c2.7-0.1,5.2,0.6,7.5,2c3.4,2.2,5.3,5.3,5.9,9.3
	C56.5,29.3,57.6,29.3,58.7,29.3z M29.5,32.7c-1.7,0-3.3,0-4.9,0c0,1.9,0,3.8,0,5.7c1.7,0,3.3,0,4.9,0C29.5,36.6,29.5,34.7,29.5,32.7
	z M55.5,32.7c0,1.9,0,3.8,0,5.8c1.7,0,3.3,0,4.9,0c0-1.9,0-3.8,0-5.8C58.8,32.7,57.2,32.7,55.5,32.7z"/>
</svg>
