<svg width="130" height="104" viewBox="0 0 130 104" fill="none" xmlns="http://www.w3.org/2000/svg">
<g clip-path="url(#clip0)">
<path d="M58.6038 101.388C58.6038 101.843 58.6204 102.243 58.6008 102.64C58.5615 103.411 57.9641 103.99 57.1901 103.994C55.5818 104.003 53.972 104 52.3622 103.996C51.386 103.993 50.8504 103.467 50.8051 102.471C50.7885 102.127 50.8021 101.779 50.8021 101.402C49.9301 101.332 49.1395 101.254 48.3459 101.208C45.7328 101.057 43.3188 98.2383 43.352 95.6852C43.4139 90.9537 43.3701 86.2191 43.3701 81.4861C43.3701 81.19 43.3701 80.8924 43.3701 80.5464C37.5585 80.5162 32.8331 78.7759 30.6349 72.863C34.2558 76.0581 38.5814 77.1398 43.3188 77.2592C43.3188 70.9278 43.3188 64.6976 43.3188 58.3179C42.3728 58.7802 41.4691 59.176 40.6076 59.6489C38.3158 60.9058 36.1176 62.3002 34.289 64.2082C33.0549 65.4953 31.9942 66.8806 31.7725 68.7176C31.697 69.3476 31.7604 69.9957 31.7604 70.5607C30.5036 69.4639 30.0027 67.4396 30.9894 65.3714C32.0983 63.0495 33.9134 61.3439 36.0195 60.0099C38.171 58.6488 40.4628 57.5052 42.7213 56.3193C43.1891 56.0745 43.3867 55.8525 43.3822 55.3147C43.3565 52.1935 43.3686 49.0709 43.3701 45.9498C43.3701 42.9027 45.9274 40.3345 48.966 40.333C51.8039 40.3315 54.6418 40.333 57.599 40.333C57.599 39.268 57.6186 38.2482 57.5763 37.2315C57.5703 37.094 57.2791 36.9324 57.0905 36.8433C56.4357 36.5336 56.1068 36.0275 56.057 35.3069C55.8066 31.7175 58.9478 28.338 62.5536 28.332C65.1939 28.3274 67.8342 28.3289 70.473 28.332C73.6066 28.335 76.3586 30.6947 76.9424 33.7947C77.1552 34.9217 77.217 35.9399 76.2273 36.7481C76.1247 36.8327 76.0417 37.0064 76.0402 37.1394C76.0251 38.1666 76.0312 39.1924 76.0312 40.2907C76.3676 40.3058 76.6347 40.3285 76.9002 40.3285C79.4892 40.3315 82.0797 40.3285 84.6687 40.33C87.7073 40.3315 90.3113 42.9511 90.3113 46.0072C90.3113 47.7672 90.3113 49.5287 90.3113 51.4246C90.7036 51.2584 91.0159 51.1361 91.3207 50.9971C92.9863 50.2387 94.6293 49.4244 96.3236 48.737C97.1836 48.3881 98.1537 48.4334 98.8583 49.1404C99.5659 49.8504 99.676 50.778 99.3728 51.7267C97.5216 57.5188 95.6719 63.3123 93.801 69.0983C93.1613 71.0789 92.579 71.3312 90.6251 70.5985C90.5603 70.5743 90.4833 70.5788 90.3098 70.5592C90.3098 70.8779 90.3098 71.1665 90.3098 71.4565C90.3098 79.5131 90.3098 87.5682 90.3098 95.6248C90.3098 98.412 88.0829 100.9 85.3054 101.202C84.5133 101.288 83.7151 101.331 82.8733 101.397C82.8446 101.864 82.8446 102.314 82.7858 102.758C82.6741 103.583 82.2019 103.993 81.3691 103.997C79.7593 104.006 78.1509 104.005 76.5411 103.997C75.5725 103.993 75.0882 103.493 75.0761 102.502C75.0716 102.153 75.0761 101.804 75.0761 101.391C69.5874 101.388 64.1499 101.388 58.6038 101.388ZM47.0952 77.0341C47.3969 77.0492 47.5734 77.0824 47.7424 77.0613C48.5586 76.9631 49.3794 76.88 50.1881 76.7365C55.437 75.8089 60.4429 74.1018 65.3222 71.9868C65.8548 71.7557 66.0615 71.4686 66.0599 70.8628C66.0388 62.2533 66.0464 53.6438 66.0434 45.0343C66.0434 44.7699 66.0147 44.5056 65.9966 44.1808C65.6194 44.1808 65.3207 44.1808 65.0234 44.1808C59.9707 44.1808 54.9164 44.22 49.8637 44.1596C48.1 44.1385 47.0725 45.2065 47.0786 46.9212C47.1118 56.6637 47.0952 66.4047 47.0952 76.1473C47.0952 76.4192 47.0952 76.6911 47.0952 77.0341ZM66.0117 73.9371C65.6994 74.061 65.4912 74.138 65.289 74.2272C63.2265 75.1351 61.1837 76.0899 59.0971 76.9419C55.4777 78.4209 51.727 79.4769 47.8767 80.1491C47.3577 80.2398 47.0771 80.2775 47.0801 80.912C47.1057 85.4653 47.0861 90.0186 47.0982 94.5718C47.1027 96.0704 48.0653 96.992 49.574 96.992C54.8003 96.9935 60.025 96.9935 65.2513 96.9905C65.4942 96.9905 65.7371 96.9693 66.0102 96.9557C66.0117 89.2798 66.0117 81.6674 66.0117 73.9371ZM86.4324 68.5545C85.5136 69.8839 84.6958 71.1363 83.8057 72.3343C82.822 73.6576 81.2167 73.4597 80.6132 71.9324C79.8935 70.112 79.2553 68.2584 78.5734 66.3927C78.5945 66.3806 78.4904 66.4319 78.3923 66.4939C75.049 68.559 71.7132 70.6377 68.3547 72.6787C67.9157 72.9461 67.7135 73.1923 67.7165 73.7226C67.7377 78.1505 67.7286 82.5783 67.7316 87.0062C67.7316 87.2464 67.7648 87.4866 67.7829 87.7117C74.1362 87.7117 80.4035 87.7117 86.6496 87.7117C86.6768 87.6256 86.6919 87.6014 86.6919 87.5773C86.7039 81.4151 86.7175 75.2514 86.7115 69.0893C86.7085 68.8914 86.5078 68.6935 86.4324 68.5545ZM78.3018 64.956C77.899 64.7369 77.7511 64.6493 77.5987 64.5753C76.4717 64.0284 75.2934 63.5691 74.2297 62.918C72.7557 62.0161 72.9156 59.7214 74.4515 58.9268C75.3658 58.4539 76.2967 58.0173 77.2291 57.5792C80.1802 56.1924 83.1298 54.804 86.0899 53.4369C86.5621 53.2193 86.7477 52.9504 86.7386 52.4126C86.7039 50.4759 86.7281 48.5361 86.7236 46.5979C86.7205 45.0132 85.7233 44.0101 84.1482 44.0101C78.9445 44.007 73.7409 44.0085 68.5373 44.0116C68.2959 44.0116 68.053 44.0388 67.7995 44.0554C67.7995 52.9821 67.7995 61.8409 67.7995 70.9822C71.3541 68.9427 74.7337 67.003 78.3018 64.956ZM93.3529 53.9021C93.4193 53.9732 93.4857 54.0457 93.5506 54.1167C93.107 54.5049 92.6469 54.872 92.2244 55.2829C89.468 57.9659 86.7371 60.6746 83.9626 63.338C82.8537 64.4015 83.2052 65.2309 84.3594 65.7446C86.6496 66.7643 88.8977 67.8777 91.1668 68.9457C91.4037 69.0575 91.6601 69.127 91.9317 69.2252C92.0403 68.9291 92.1248 68.7206 92.1927 68.5092C93.9776 62.9845 95.7684 57.4629 97.5276 51.9322C97.6815 51.4503 97.6166 50.8989 97.6528 50.3807C97.1082 50.4804 96.5152 50.4728 96.0264 50.6964C93.1312 52.0168 90.26 53.3915 87.3784 54.7451C83.4511 56.5897 79.5194 58.4237 75.6027 60.2879C75.3251 60.4208 74.9811 60.7502 74.9675 61.004C74.9554 61.2381 75.3025 61.575 75.5695 61.7246C76.2243 62.0902 76.944 62.3409 77.6048 62.696C78.9958 63.4422 80.2888 63.3018 81.5486 62.3893C84.5299 60.2305 87.5187 58.0823 90.506 55.9325C91.4519 55.2497 92.4039 54.5774 93.3529 53.9021ZM86.7205 89.3795C86.4837 89.3599 86.363 89.3418 86.2408 89.3418C80.2843 89.3403 74.3278 89.3448 68.3698 89.3312C67.878 89.3297 67.715 89.4823 67.7196 89.9778C67.7407 92.1925 67.7271 94.4072 67.7331 96.6219C67.7331 96.785 67.792 96.9482 67.8206 97.0902C67.9217 97.1143 67.9715 97.1355 68.0198 97.1355C73.4995 97.14 78.9777 97.1506 84.4574 97.137C85.6509 97.134 86.6572 96.226 86.7024 95.0296C86.7703 93.1714 86.7205 91.3102 86.7205 89.3795ZM74.5994 40.2847C74.5994 39.2196 74.6039 38.1984 74.5918 37.1756C74.5903 37.0744 74.5058 36.9188 74.4213 36.8826C73.4724 36.4883 73.3984 35.6075 73.2234 34.7766C72.9322 33.3898 71.7479 32.142 70.3644 32.0634C68.0153 31.932 65.6556 31.9063 63.302 31.941C62.0422 31.9592 60.9272 32.5166 60.3313 33.6844C59.8213 34.6845 59.3235 35.745 59.1198 36.8342C58.9131 37.9416 59.0745 39.1169 59.0745 40.2847C64.2902 40.2847 69.3988 40.2847 74.5994 40.2847ZM82.2924 71.5714C83 70.5531 83.5854 69.7147 84.1663 68.8747C84.6008 68.2463 84.5631 67.9124 83.9339 67.5166C83.1509 67.0256 82.3528 66.5573 81.535 66.1283C81.3072 66.0089 80.8968 65.9394 80.7414 66.0633C80.5649 66.2038 80.4533 66.6313 80.5332 66.8564C81.0658 68.3823 81.6572 69.8884 82.2924 71.5714Z" fill="black"/>
<path d="M47.0951 77.0339C47.0951 76.691 47.0951 76.4191 47.0951 76.1472C47.0951 66.4046 47.1117 56.6636 47.0785 46.9211C47.0725 45.2064 48.0999 44.1383 49.8636 44.1595C54.9164 44.2199 59.9691 44.1806 65.0234 44.1806C65.3206 44.1806 65.6193 44.1806 65.9965 44.1806C66.0146 44.5054 66.0433 44.7698 66.0433 45.0342C66.0448 53.6437 66.0388 62.2532 66.0599 70.8627C66.0614 71.467 65.8562 71.7555 65.3221 71.9867C60.4429 74.1032 55.4369 75.8088 50.188 76.7363C49.3793 76.8799 48.5586 76.9629 47.7424 77.0611C47.5734 77.0823 47.3969 77.0491 47.0951 77.0339ZM63.5841 61.9783C63.5841 63.1355 63.5856 64.2942 63.5841 65.4514C63.5826 65.9726 63.6942 66.453 64.3203 66.465C64.9299 66.4786 65.1139 66.036 65.1154 65.4982C65.1169 63.1581 65.1154 60.8165 65.1169 58.4764C65.1169 57.9311 64.8861 57.4688 64.3309 57.4809C63.7817 57.493 63.569 57.9447 63.578 58.5036C63.5976 59.6639 63.5841 60.8211 63.5841 61.9783Z" fill="#2394BF"/>
<path d="M66.0116 73.937C66.0116 81.6673 66.0116 89.2812 66.0116 96.9571C65.7385 96.9707 65.4956 96.9919 65.2527 96.9919C60.0265 96.9934 54.8017 96.9949 49.5755 96.9934C48.0683 96.9934 47.1042 96.0703 47.0997 94.5732C47.0876 90.02 47.1072 85.4667 47.0816 80.9134C47.0785 80.2789 47.3592 80.2412 47.8782 80.1505C51.7285 79.4783 55.4792 78.4223 59.0986 76.9433C61.1837 76.0913 63.2265 75.135 65.2904 74.2286C65.4911 74.1364 65.6993 74.0609 66.0116 73.937Z" fill="#2394BF"/>
<path d="M86.4323 68.5541C86.5078 68.6931 86.7084 68.891 86.7099 69.0904C86.716 75.2526 86.7024 81.4163 86.6903 87.5784C86.6903 87.6026 86.6767 87.6268 86.6481 87.7129C80.4019 87.7129 74.1346 87.7129 67.7813 87.7129C67.7647 87.4878 67.73 87.2476 67.73 87.0074C67.727 82.5795 67.7361 78.1517 67.7149 73.7238C67.7119 73.1935 67.9141 72.9458 68.3531 72.6799C71.7116 70.6389 75.0474 68.5602 78.3908 66.495C78.4888 66.4346 78.5929 66.3817 78.5718 66.3938C79.2553 68.2595 79.8935 70.1132 80.6116 71.9336C81.2151 73.4609 82.8204 73.6588 83.8041 72.3354C84.6958 71.1344 85.5135 69.8836 86.4323 68.5541Z" fill="white"/>
<path d="M78.3017 64.9557C74.7336 67.0027 71.354 68.9425 67.7994 70.9819C67.7994 61.8422 67.7994 52.9819 67.7994 44.0551C68.0529 44.04 68.2958 44.0128 68.5372 44.0113C73.7408 44.0083 78.9445 44.0083 84.1481 44.0098C85.7232 44.0098 86.7205 45.0144 86.7235 46.5976C86.728 48.5359 86.7039 50.4741 86.7386 52.4123C86.7476 52.9501 86.562 53.2175 86.0898 53.4366C83.1297 54.8023 80.1786 56.1906 77.229 57.579C76.2981 58.0171 75.3657 58.4552 74.4514 58.9265C72.9156 59.7196 72.7556 62.0159 74.2297 62.9178C75.2933 63.5689 76.4716 64.0282 77.5987 64.575C77.751 64.6506 77.8989 64.7382 78.3017 64.9557ZM68.8646 61.8301C68.8646 63.0084 68.8661 64.1883 68.8646 65.3666C68.8631 65.8546 68.937 66.2957 69.5541 66.3229C70.1787 66.3501 70.319 65.8773 70.3235 65.421C70.3447 63.013 70.3371 60.6049 70.3235 58.1968C70.3205 57.733 70.1274 57.3025 69.5948 57.3448C69.0864 57.3856 68.8465 57.7421 68.8586 58.292C68.8827 59.4704 68.8661 60.6502 68.8646 61.8301Z" fill="white"/>
<path d="M93.3529 53.9019C92.4039 54.5772 91.4534 55.2495 90.5074 55.9293C87.5201 58.079 84.5313 60.2272 81.5501 62.386C80.2903 63.2985 78.9973 63.439 77.6063 62.6927C76.9439 62.3377 76.2258 62.0869 75.571 61.7213C75.3039 61.5718 74.9569 61.2349 74.969 61.0007C74.9826 60.7469 75.3266 60.4161 75.6042 60.2846C79.5223 58.4204 83.4541 56.5864 87.3798 54.7419C90.26 53.3883 93.1311 52.0135 96.0279 50.6932C96.5167 50.4711 97.1096 50.4771 97.6543 50.3774C97.6181 50.8971 97.6829 51.447 97.529 51.9289C95.7699 57.4611 93.979 62.9828 92.1942 68.5059C92.1248 68.7189 92.0418 68.9274 91.9332 69.222C91.6616 69.1238 91.4051 69.0543 91.1682 68.9425C88.8991 67.8744 86.6511 66.761 84.3608 65.7413C83.2052 65.2277 82.8536 64.3983 83.9641 63.3348C86.7401 60.6729 89.4709 57.9627 92.2259 55.2797C92.6468 54.8703 93.1085 54.5017 93.552 54.1134C93.4857 54.0454 93.4193 53.9729 93.3529 53.9019Z" fill="white"/>
<path d="M86.7205 89.3794C86.7205 91.3101 86.7718 93.1728 86.7024 95.0294C86.6587 96.2259 85.6508 97.1338 84.4574 97.1368C78.9777 97.1504 73.4995 97.1399 68.0197 97.1353C67.9715 97.1353 67.9217 97.1142 67.8206 97.09C67.7934 96.948 67.7346 96.7848 67.7331 96.6217C67.7271 94.407 67.7406 92.1923 67.7195 89.9776C67.715 89.4821 67.8779 89.3296 68.3698 89.3311C74.3263 89.3447 80.2828 89.3401 86.2407 89.3416C86.3614 89.3401 86.4837 89.3598 86.7205 89.3794ZM77.1898 91.8645C77.8914 91.8645 78.596 91.9038 79.2915 91.8449C79.5495 91.8237 79.7879 91.5714 80.0353 91.4249C79.7969 91.2617 79.5616 90.9641 79.3187 90.9566C77.9186 90.9113 76.5154 90.9354 75.1123 90.9324C74.7668 90.9324 74.3776 90.952 74.4786 91.4158C74.5194 91.6001 74.8664 91.8252 75.0882 91.8434C75.7837 91.8993 76.4883 91.8645 77.1898 91.8645Z" fill="white"/>
<path d="M74.5993 40.2845C69.3987 40.2845 64.2902 40.2845 59.0745 40.2845C59.0745 39.1167 58.913 37.9413 59.1197 36.834C59.3234 35.7448 59.8213 34.6843 60.3312 33.6842C60.9257 32.5164 62.0422 31.9604 63.3019 31.9408C65.6556 31.9061 68.0152 31.9317 70.3643 32.0632C71.7478 32.1402 72.9322 33.3881 73.2234 34.7764C73.3984 35.6073 73.4708 36.488 74.4213 36.8823C74.5058 36.9171 74.5903 37.0742 74.5918 37.1754C74.6039 38.1982 74.5993 39.2209 74.5993 40.2845Z" fill="white"/>
<path d="M82.2924 71.5715C81.6557 69.8885 81.0657 68.3823 80.5332 66.8565C80.4547 66.6299 80.5648 66.2039 80.7414 66.0634C80.8968 65.9395 81.3086 66.009 81.535 66.1284C82.3527 66.5589 83.1508 67.0257 83.9339 67.5167C84.563 67.911 84.6007 68.2449 84.1662 68.8748C83.5854 69.7148 83 70.5532 82.2924 71.5715Z" fill="white"/>
<path d="M63.584 61.978C63.584 60.8208 63.5976 59.6621 63.578 58.5049C63.5689 57.946 63.7817 57.4927 64.3308 57.4822C64.886 57.4701 65.1169 57.9324 65.1169 58.4777C65.1154 60.8178 65.1169 63.1594 65.1154 65.4995C65.1154 66.0373 64.9298 66.4784 64.3203 66.4663C63.6941 66.4527 63.5825 65.9738 63.584 65.4526C63.5855 64.2939 63.584 63.1367 63.584 61.978Z" fill="black"/>
<path d="M68.8646 61.8299C68.8646 60.6516 68.8827 59.4717 68.8571 58.2933C68.845 57.7435 69.0849 57.3869 69.5933 57.3461C70.1259 57.3038 70.319 57.7344 70.322 58.1982C70.3356 60.6062 70.3447 63.0143 70.322 65.4223C70.3175 65.8801 70.1772 66.3514 69.5526 66.3242C68.9355 66.297 68.8631 65.8559 68.8631 65.368C68.8661 64.1881 68.8646 63.0082 68.8646 61.8299Z" fill="black"/>
<path d="M77.1898 91.8647C76.4883 91.8647 75.7852 91.8994 75.0882 91.8451C74.8664 91.8269 74.5194 91.6018 74.4787 91.4175C74.3776 90.9522 74.7668 90.9326 75.1123 90.9341C76.5139 90.9356 77.917 90.9115 79.3187 90.9583C79.5631 90.9658 79.7969 91.2634 80.0353 91.4266C79.7879 91.5731 79.5495 91.8254 79.2915 91.8466C78.5945 91.904 77.8899 91.8647 77.1898 91.8647Z" fill="black"/>
<path d="M2.27064 63.8652C2.2118 62.986 2.19973 61.8408 2.34155 60.3996C2.51657 58.6276 3.05518 57.3707 3.87744 56.6214C4.61069 55.9249 5.66378 55.5699 6.89793 55.6923C8.15319 55.8162 9.1037 56.2845 9.75396 57.0549C10.6683 58.1019 11.0303 59.6972 10.8584 61.4481C10.8055 61.9828 10.7361 62.4753 10.5928 62.8772L16.1465 63.4256L15.9699 65.2173L2.27064 63.8652ZM9.13236 62.7337C9.27418 62.353 9.3632 61.862 9.42204 61.2653C9.63477 59.1019 8.71595 57.6804 6.80288 57.4915C4.97278 57.3102 3.96042 58.5203 3.7658 60.4978C3.68885 61.2804 3.69187 61.8847 3.74317 62.2004L9.13236 62.7337Z" fill="black"/>
<path d="M13.1697 46.149L11.5629 51.3277L16.3592 52.8187L18.1501 47.0478L19.5909 47.4965L17.2674 54.9866L3.96344 50.8488L6.19486 43.6548L7.6357 44.1035L5.93686 49.5783L10.1417 50.885L11.7485 45.7063L13.1697 46.149Z" fill="black"/>
<path d="M8.24677 39.3222C8.52437 38.4354 9.0645 37.2449 9.66497 36.1587C10.5959 34.4743 11.5041 33.5588 12.6115 33.1796C13.4941 32.8654 14.5171 32.9817 15.457 33.5029C17.0668 34.3942 17.5722 36.0001 17.2961 37.5259L17.3505 37.5561C18.1969 36.7947 19.3752 36.7147 20.8009 37.1271C22.7215 37.6709 24.0568 38.032 24.6663 38.0396L23.7656 39.6696C23.3115 39.6787 22.1135 39.369 20.4041 38.8704C18.5227 38.3009 17.5285 38.6015 16.6836 40.002L15.8629 41.487L21.1434 44.4132L20.2729 45.9889L8.24677 39.3222ZM14.6679 40.8238L15.5581 39.2119C16.489 37.5274 16.1571 35.9487 14.7645 35.1768C13.1909 34.3051 11.8738 35.065 10.9338 36.7207C10.5129 37.4806 10.2851 38.0652 10.2172 38.3583L14.6679 40.8238Z" fill="black"/>
<path d="M25.3135 27.2604L21.7906 31.3786L25.6047 34.6508L29.532 30.0613L30.6771 31.0448L25.5806 37.0015L15.0013 27.9251L19.8972 22.2041L21.0423 23.1876L17.3172 27.5414L20.6606 30.4103L24.185 26.2921L25.3135 27.2604Z" fill="black"/>
<path d="M33.5527 20.3239L29.3056 23.6867L32.4211 27.6311L37.1555 23.8831L38.091 25.0675L31.9474 29.9334L23.3069 18.9929L29.2075 14.3203L30.143 15.5047L25.653 19.0609L28.3838 22.5189L32.6309 19.1561L33.5527 20.3239Z" fill="black"/>
<path d="M33.5135 11.6854C34.4338 11.0676 35.5593 10.3998 36.8493 9.79101C39.1863 8.6882 41.1054 8.44498 42.6941 8.95408C44.3009 9.45413 45.6422 10.6053 46.6033 12.6463C47.5734 14.7053 47.7303 16.6904 47.0996 18.4066C46.4765 20.1424 44.832 21.6969 42.3833 22.8526C41.2246 23.3995 40.2258 23.8028 39.3583 24.0974L33.5135 11.6854ZM40.3933 22.0746C40.8399 21.9552 41.4464 21.6909 42.0831 21.3917C45.5607 19.7496 46.5324 16.911 44.9271 13.5043C43.5435 10.5192 40.9712 9.4224 37.5312 11.0464C36.6894 11.4437 36.0889 11.8184 35.7042 12.1145L40.3933 22.0746Z" fill="black"/>
<path d="M56.9924 11.1262L51.6967 12.2593L52.7468 17.1781L58.6489 15.9152L58.9643 17.3926L51.3029 19.0318L48.3926 5.39007L55.7507 3.81592L56.066 5.29339L50.4671 6.49138L51.3874 10.8029L56.6831 9.66991L56.9924 11.1262Z" fill="black"/>
<path d="M72.4388 11.362C72.4207 9.41316 72.3981 7.07156 72.4946 5.33576L72.4328 5.33274C71.8866 6.94617 71.2318 8.65629 70.4458 10.5492L67.6938 17.2039L66.3315 17.1434L64.3701 10.4072C63.7953 8.41458 63.3155 6.59116 62.9956 4.91881L62.9549 4.9173C62.8372 6.65159 62.632 8.98412 62.4178 11.0674L61.7856 17.0271L60.0717 16.9516L61.6499 3.05762L63.9416 3.15732L66.0222 10.0023C66.5261 11.7442 66.9334 13.2942 67.2216 14.758L67.2835 14.7611C67.6954 13.3697 68.2581 11.862 68.9552 10.1307L71.7267 3.49874L74.0185 3.59845L74.278 17.5725L72.5233 17.4954L72.4388 11.362Z" fill="black"/>
<path d="M76.0402 17.355C76.2243 16.6117 76.8549 16.2144 77.558 16.3881C78.2596 16.5619 78.6126 17.2039 78.4285 17.9472C78.249 18.6708 77.6531 19.0983 76.9107 18.914C76.2077 18.7403 75.8607 18.0771 76.0402 17.355Z" fill="black"/>
<path d="M85.266 6.47949L86.9271 7.16686L84.3608 13.3834L84.4181 13.4076C84.9673 13.0526 85.5014 12.7353 85.9993 12.4498L91.9331 9.23955L93.9956 10.0931L87.0765 13.6327L89.0349 23.1335L87.0675 22.3192L85.441 14.2324L83.6336 15.1419L81.6028 20.0577L79.9417 19.3703L85.266 6.47949Z" fill="black"/>
<path d="M98.3951 12.8776L91.1501 24.7925L89.6142 23.8559L96.8592 11.9409L98.3951 12.8776Z" fill="black"/>
<path d="M103.136 25.7364L98.9608 22.2815L95.7608 26.1579L100.414 30.0087L99.4527 31.1735L93.4147 26.1761L102.291 15.4229L108.09 20.2224L107.129 21.3871L102.716 17.7342L99.9113 21.1318L104.086 24.5868L103.136 25.7364Z" fill="black"/>
<path d="M102.62 34.8866L110.712 22.6514L111.919 24.1757L107.89 30.1475C106.788 31.7881 105.78 33.2475 104.732 34.5557L104.757 34.5875C106.265 33.8925 108.001 33.2535 109.812 32.6084L116.669 30.1762L117.864 31.6839L103.852 36.4411L102.62 34.8866Z" fill="black"/>
<path d="M107.295 39.5078C107.95 39.1135 108.677 39.2797 109.05 39.9006C109.422 40.5215 109.217 41.224 108.562 41.6183C107.924 42.002 107.202 41.8826 106.808 41.2255C106.435 40.6061 106.658 39.8915 107.295 39.5078Z" fill="black"/>
<path d="M122.325 40.2058L114.643 43.2091C111.735 44.3451 111.007 46.1187 111.682 47.8545C112.434 49.7822 114.185 50.5194 117.055 49.3985L124.738 46.3952L125.398 48.0917L117.832 51.0497C113.846 52.6072 111.39 51.1463 110.293 48.3304C109.255 45.67 109.996 43.0701 114.02 41.4975L121.664 38.5093L122.325 40.2058Z" fill="black"/>
<path d="M117.435 56.4053L112.897 55.5639L112.645 53.7178L127.09 56.5262L127.384 58.6789L114.223 65.2837L113.964 63.3772L118.104 61.3076L117.435 56.4053ZM119.446 60.7471L123.235 58.8496C124.093 58.4191 124.885 58.1018 125.656 57.7876L125.65 57.7468C124.802 57.6532 123.933 57.5429 123.057 57.3918L118.879 56.5851L119.446 60.7471Z" fill="black"/>
</g>
<defs>
<clipPath id="clip0">
<rect width="130" height="104" fill="white"/>
</clipPath>
</defs>
</svg>
