<?xml version="1.0" encoding="utf-8"?>
<!-- Generator: Adobe Illustrator 23.0.3, SVG Export Plug-In . SVG Version: 6.00 Build 0)  -->
<svg version="1.1" id="Layer_1" xmlns="http://www.w3.org/2000/svg" xmlns:xlink="http://www.w3.org/1999/xlink" x="0px" y="0px"
	 viewBox="0 0 861.7 946.3" style="enable-background:new 0 0 861.7 946.3;" xml:space="preserve">
<style type="text/css">
	.st0{fill:#FFFFFF;}
	.st1{fill:#2394BF;}
</style>
<path class="st0" d="M658.8,321.8c-5.7-5.7-14-7.1-22.2-3.8c-7.9,3.2-15.7,6.9-23.3,10.4c-3.2,1.5-6.5,3-9.7,4.5v-28.4
	c0-23-19.4-42.5-42.4-42.5c-7.3,0-14.6,0-22,0c-9.8,0-19.7,0-29.5,0c-0.3,0-0.5,0-0.8,0v-0.1c0-5.3,0-10.2,0.1-15.2
	c8.9-7.8,7-18.2,5.9-23.8c-4.3-22.9-24.8-40.2-47.8-40.2c-15.5,0-33.9,0-52.5,0c-12.8,0-25.4,5.8-34.8,15.8
	c-9.3,10-14.1,23-13.2,35.7c0.5,6.6,3.8,11.5,9.7,14.3c0.2,0.1,0.3,0.2,0.5,0.2c0.1,4.3,0.1,8.7,0.1,13.3v0.1h-14.6
	c-12.7,0-25.2,0-37.7,0c-22.8,0-42,19.3-42,42.1c0,4.5,0,9.1,0,13.6c0,15.9,0,32.3,0.1,48.4c0,0.9-0.1,1.2-0.1,1.2s-0.2,0.3-1.6,1.1
	c-2.5,1.3-5.1,2.7-7.6,4c-12.4,6.4-25.1,13.1-37.1,20.7c-16.6,10.5-28.1,22.8-35.2,37.5c-7,14.7-4.5,30.8,6.3,40.2l8.2,7.2v-10.9
	c0-1.2,0-2.4-0.1-3.7c-0.1-2.6-0.2-5.4,0.1-7.9c1.3-11.1,8.2-19.5,15.3-27c12.4-13,27.5-22.1,40.7-29.3c3.4-1.9,6.9-3.5,10.6-5.3
	v112.4c-32.1-1.6-56.3-10.4-75.8-27.7l-14.8-13.1l6.9,18.5c13.2,35.4,39.9,52.6,84.1,54v1.3c0,9.2,0,18.4,0,27.5
	c0.1,21.8,0.1,44.3-0.2,66.4c-0.1,9.4,4,19.4,11.2,27.6c7.4,8.3,17.1,13.4,26.6,14c3.5,0.2,7,0.5,10.7,0.8c0.3,0,0.6,0.1,0.9,0.1
	c0,0.9,0,1.8,0.1,2.7c0.4,9.3,6.1,14.8,15.3,14.8c9.7,0,21,0.1,32,0c7.7,0,13.9-5.9,14.3-13.7c0.1-1.2,0.1-2.4,0.1-3.6
	c33.4,0,66.2,0,99.2,0c0,0.8,0,1.6,0,2.5c0.1,9.2,5.6,14.8,14.6,14.8c5.9,0,11.5,0,16.8,0s10.4,0,15.2,0c8,0,13.2-4.6,14.3-12.5
	c0.2-1.7,0.3-3.4,0.4-5c0.3,0,0.6,0,0.9-0.1c3.8-0.3,7.4-0.5,11-0.9c21.1-2.3,37.6-20.7,37.6-41.9V473.5c5,1.5,9.3,1.8,13.2,0
	c4.9-2.4,7.5-7.6,9.7-14.6c11.4-35.1,22.8-70.8,33.9-105.4l3.1-9.6C666.1,335.4,664.5,327.5,658.8,321.8z M489.5,261.7h-93.1
	c0-0.8-0.1-1.6-0.1-2.3c-0.2-5.2-0.4-10.1,0.4-14.6c1.3-6.8,4.6-13.6,7.6-19.5c3.9-7.6,11.3-8.8,15.3-8.8c17.1-0.3,32.3,0,46.5,0.8
	c6.5,0.4,12.8,6.5,14.4,14c0.1,0.5,0.2,1.1,0.3,1.6c1,4.8,2.2,11.3,8.7,14.9C489.5,252.4,489.5,256.9,489.5,261.7z"/>
<path d="M312.1,509.9c2,0.1,3.2,0.3,4.3,0.2c5.4-0.6,10.9-1.2,16.2-2.1c34.8-6.1,68-17.4,100.3-31.4c3.5-1.5,4.9-3.4,4.9-7.4
	c-0.1-57-0.1-114-0.1-171c0-1.8-0.2-3.5-0.3-5.6c-2.5,0-4.5,0-6.5,0c-33.5,0-67,0.3-100.5-0.1c-11.7-0.1-18.5,6.9-18.5,18.3
	c0.2,64.5,0.1,129,0.1,193.5C312.1,505.9,312.1,507.7,312.1,509.9z"/>
<path d="M437.5,489.4c-2.1,0.8-3.5,1.3-4.8,1.9c-13.7,6-27.2,12.3-41,18c-24,9.8-48.9,16.8-74.4,21.2c-3.4,0.6-5.3,0.8-5.3,5
	c0.2,30.1,0,60.3,0.1,90.4c0,9.9,6.4,16,16.4,16c34.6,0,69.3,0,103.9,0c1.6,0,3.2-0.1,5-0.2C437.5,591,437.5,540.6,437.5,489.4z"/>
<path d="M572.9,453.8c-6.1,8.8-11.5,17.1-17.4,25c-6.5,8.8-17.2,7.5-21.2-2.7c-4.8-12-9-24.3-13.5-36.7c0.1-0.1-0.5,0.3-1.2,0.7
	c-22.2,13.7-44.3,27.4-66.5,40.9c-2.9,1.8-4.3,3.4-4.2,6.9c0.1,29.3,0.1,58.6,0.1,87.9c0,1.6,0.2,3.2,0.3,4.7c42.1,0,83.7,0,125,0
	c0.2-0.6,0.3-0.7,0.3-0.9c0.1-40.8,0.2-81.6,0.1-122.4C574.7,456,573.4,454.7,572.9,453.8z"/>
<path d="M519,430c-2.7-1.5-3.7-2-4.7-2.5c-7.5-3.6-15.3-6.7-22.3-11c-9.8-6-8.7-21.2,1.5-26.4c6.1-3.1,12.2-6,18.4-8.9
	c19.6-9.2,39.1-18.4,58.7-27.4c3.1-1.4,4.4-3.2,4.3-6.8c-0.2-12.8-0.1-25.7-0.1-38.5c0-10.5-6.6-17.1-17.1-17.1
	c-34.5,0-69,0-103.5,0c-1.6,0-3.2,0.2-4.9,0.3c0,59.1,0,117.7,0,178.2C472.9,456.4,495.3,443.5,519,430z"/>
<path d="M618.8,356.8c0.4,0.5,0.9,1,1.3,1.4c-2.9,2.6-6,5-8.8,7.7c-18.3,17.8-36.4,35.7-54.8,53.3c-7.3,7-5,12.5,2.6,15.9
	c15.2,6.8,30.1,14.1,45.1,21.2c1.6,0.7,3.3,1.2,5.1,1.9c0.7-2,1.3-3.3,1.7-4.7c11.8-36.6,23.7-73.1,35.4-109.7
	c1-3.2,0.6-6.8,0.8-10.3c-3.6,0.7-7.5,0.6-10.8,2.1c-19.2,8.7-38.2,17.8-57.3,26.8c-26,12.2-52.1,24.4-78,36.7
	c-1.8,0.9-4.1,3.1-4.2,4.7c-0.1,1.5,2.2,3.8,4,4.8c4.3,2.4,9.1,4.1,13.5,6.4c9.2,4.9,17.8,4,26.1-2c19.8-14.3,39.6-28.5,59.4-42.7
	C606.2,365.7,612.5,361.3,618.8,356.8z"/>
<path d="M574.8,591.6c-1.6-0.1-2.4-0.3-3.2-0.3c-39.5,0-79,0-118.5-0.1c-3.3,0-4.3,1-4.3,4.3c0.1,14.7,0,29.3,0.1,44
	c0,1.1,0.4,2.2,0.6,3.1c0.7,0.2,1,0.3,1.3,0.3c36.3,0,72.6,0.1,109,0c7.9,0,14.6-6,14.9-14C575.1,616.7,574.8,604.4,574.8,591.6z"/>
<path d="M655.2,325.3c-4.7-4.7-11.1-5-16.8-2.7c-11.2,4.5-22.1,9.9-33.2,15c-2,0.9-4.1,1.7-6.7,2.8c0-12.5,0-24.2,0-35.9
	c0-20.2-17.3-37.6-37.4-37.6c-17.2,0-34.3,0-51.5,0c-1.8,0-3.5-0.1-5.8-0.3c0-7.3,0-14.1,0.1-20.9c0-0.9,0.6-2,1.2-2.6
	c6.6-5.3,6.2-12.1,4.7-19.5c-3.9-20.5-22.1-36.1-42.9-36.2c-17.5,0-35,0-52.5,0c-23.9,0-44.7,22.4-43.1,46.2
	c0.3,4.8,2.5,8.1,6.9,10.2c1.3,0.6,3.2,1.7,3.2,2.6c0.3,6.7,0.2,13.5,0.2,20.5c-19.6,0-38.4,0-57.2,0c-20.1,0-37.1,17-37.1,37.2
	c0,20.7-0.1,41.3,0.1,62c0,3.6-1.3,5-4.4,6.6c-15,7.9-30.2,15.4-44.4,24.4c-14,8.8-26,20.1-33.3,35.5c-6.5,13.7-3.2,27.1,5.1,34.4
	c0-3.7-0.4-8,0.1-12.2c1.5-12.2,8.5-21.3,16.7-29.9c12.1-12.6,26.7-21.9,41.9-30.2c5.7-3.1,11.7-5.8,18-8.8c0,42.2,0,83.5,0,125.4
	c-31.4-0.8-60.1-8-84.1-29.1c14.6,39.1,45.9,50.7,84.4,50.9c0,2.3,0,4.3,0,6.2c0,31.3,0.3,62.7-0.1,94
	c-0.2,16.9,15.8,35.6,33.1,36.6c5.3,0.3,10.5,0.8,16.3,1.3c0,2.5-0.1,4.8,0,7.1c0.3,6.6,3.9,10.1,10.3,10.1c10.7,0,21.3,0,32,0
	c5.1,0,9.1-3.9,9.4-9c0.1-2.6,0-5.3,0-8.3c36.8,0,72.8,0,109.2,0c0,2.7,0,5,0,7.3c0.1,6.6,3.3,9.9,9.7,9.9c10.7,0,21.3,0.1,32,0
	c5.5,0,8.7-2.7,9.4-8.2c0.4-2.9,0.4-5.9,0.6-9c5.6-0.4,10.9-0.7,16.1-1.3c18.4-2,33.2-18.5,33.2-36.9c0-53.3,0-106.7,0-160
	c0-1.9,0-3.8,0-5.9c1.2,0.1,1.7,0.1,2.1,0.3c13,4.9,16.8,3.2,21-9.9c12.4-38.3,24.7-76.6,36.9-115
	C660.7,336.1,659.9,330,655.2,325.3z M494.5,266.7c-34.5,0-68.3,0-102.9,0c0-7.7-1.1-15.5,0.3-22.8c1.3-7.2,4.6-14.2,8-20.8
	c4-7.7,11.3-11.4,19.7-11.5c15.6-0.2,31.2-0.1,46.8,0.8c9.2,0.5,17,8.8,19,18c1.2,5.5,1.7,11.3,7.9,13.9c0.6,0.2,1.1,1.3,1.1,1.9
	C494.5,252.9,494.5,259.6,494.5,266.7z"/>
<path d="M545.4,473.8c4.7-6.7,8.6-12.3,12.4-17.9c2.9-4.2,2.6-6.4-1.5-9c-5.2-3.3-10.5-6.4-15.9-9.2c-1.5-0.8-4.2-1.3-5.3-0.4
	c-1.2,0.9-1.9,3.8-1.4,5.3C537.3,452.7,541.2,462.6,545.4,473.8z"/>
<path class="st1" d="M312.1,509.9c0-2.3,0-4.1,0-5.9c0-64.5,0.1-129-0.1-193.5c0-11.4,6.8-18.4,18.5-18.3c33.5,0.4,67,0.1,100.5,0.1
	c2,0,4,0,6.5,0c0.1,2.1,0.3,3.9,0.3,5.6c0,57,0,114,0.1,171c0,4-1.4,5.9-4.9,7.4c-32.3,14-65.5,25.3-100.3,31.4
	c-5.4,1-10.8,1.5-16.2,2.1C315.3,510.2,314.1,510,312.1,509.9z M421.4,410.3c0,7.7,0,15.3,0,23c0,3.5,0.7,6.6,4.9,6.7
	c4,0.1,5.3-2.8,5.3-6.4c0-15.5,0-31,0-46.5c0-3.6-1.5-6.7-5.2-6.6c-3.6,0.1-5,3.1-5,6.8C421.5,394.9,421.4,402.6,421.4,410.3z"/>
<path class="st1" d="M437.5,489.4c0,51.2,0,101.6,0,152.4c-1.8,0.1-3.4,0.2-5,0.2c-34.6,0-69.3,0-103.9,0c-10,0-16.4-6.1-16.4-16
	c-0.1-30.1,0-60.3-0.1-90.4c0-4.2,1.8-4.5,5.3-5c25.5-4.5,50.4-11.4,74.4-21.2c13.8-5.6,27.4-12,41-18
	C434.1,490.7,435.5,490.2,437.5,489.4z"/>
<path class="st0" d="M572.9,453.8c0.5,0.9,1.8,2.2,1.8,3.5c0,40.8,0,81.6-0.1,122.4c0,0.2-0.1,0.3-0.3,0.9c-41.4,0-82.9,0-125,0
	c-0.1-1.5-0.3-3.1-0.3-4.7c0-29.3,0-58.6-0.1-87.9c0-3.5,1.3-5.1,4.2-6.9c22.3-13.5,44.4-27.3,66.5-40.9c0.7-0.4,1.3-0.8,1.2-0.7
	c4.5,12.4,8.8,24.6,13.5,36.7c4,10.1,14.6,11.4,21.2,2.7C561.4,470.9,566.8,462.6,572.9,453.8z"/>
<path class="st0" d="M519,430c-23.6,13.5-46,26.4-69.6,39.9c0-60.5,0-119.1,0-178.2c1.7-0.1,3.3-0.3,4.9-0.3c34.5,0,69,0,103.5,0
	c10.4,0,17,6.6,17.1,17.1c0,12.8-0.1,25.7,0.1,38.5c0.1,3.6-1.2,5.3-4.3,6.8c-19.6,9-39.2,18.2-58.7,27.4
	c-6.2,2.9-12.4,5.8-18.4,8.9c-10.2,5.3-11.2,20.5-1.5,26.4c7,4.3,14.9,7.4,22.3,11C515.3,428,516.3,428.5,519,430z M456.4,409.3
	c0,7.8,0,15.6,0,23.4c0,3.2,0.5,6.1,4.6,6.3c4.1,0.2,5.1-3,5.1-6c0.1-15.9,0.1-31.9,0-47.8c0-3.1-1.3-5.9-4.8-5.6
	c-3.4,0.3-5,2.6-4.9,6.3C456.6,393.7,456.5,401.5,456.4,409.3z"/>
<path class="st0" d="M618.8,356.8c-6.3,4.5-12.6,8.9-18.9,13.4c-19.8,14.2-39.6,28.5-59.4,42.7c-8.3,6-16.9,7-26.1,2
	c-4.4-2.4-9.1-4-13.5-6.4c-1.8-1-4.1-3.2-4-4.8c0.1-1.7,2.4-3.9,4.2-4.7c26-12.3,52-24.5,78.1-36.7c19.1-9,38.1-18.1,57.3-26.8
	c3.2-1.5,7.2-1.4,10.8-2.1c-0.2,3.4,0.2,7.1-0.8,10.3c-11.7,36.6-23.5,73.2-35.4,109.7c-0.5,1.4-1,2.8-1.7,4.7
	c-1.8-0.6-3.5-1.1-5.1-1.9c-15-7.1-29.9-14.4-45.1-21.2c-7.7-3.4-10-8.9-2.6-15.9c18.4-17.6,36.5-35.6,54.8-53.3
	c2.8-2.7,5.8-5.1,8.8-7.7C619.6,357.8,619.2,357.3,618.8,356.8z"/>
<path class="st0" d="M574.8,591.6c0,12.8,0.3,25.1-0.1,37.4c-0.3,7.9-7,13.9-14.9,14c-36.3,0.1-72.6,0-109,0c-0.3,0-0.6-0.1-1.3-0.3
	c-0.2-0.9-0.6-2-0.6-3.1c0-14.7,0-29.3-0.1-44c0-3.3,1-4.3,4.3-4.3c39.5,0.1,79,0.1,118.5,0.1C572.4,591.4,573.2,591.5,574.8,591.6z
	 M511.6,608.1c4.7,0,9.3,0.3,13.9-0.1c1.7-0.1,3.3-1.8,4.9-2.8c-1.6-1.1-3.1-3-4.8-3.1c-9.3-0.3-18.6-0.1-27.9-0.2
	c-2.3,0-4.9,0.1-4.2,3.2c0.3,1.2,2.6,2.7,4,2.8C502.3,608.3,507,608.1,511.6,608.1z"/>
<path class="st0" d="M545.4,473.8c-4.2-11.1-8.1-21.1-11.7-31.2c-0.5-1.5,0.2-4.3,1.4-5.3c1-0.8,3.8-0.4,5.3,0.4
	c5.4,2.9,10.7,5.9,15.9,9.2c4.2,2.6,4.4,4.8,1.5,9C554,461.5,550.1,467,545.4,473.8z"/>
<path d="M421.4,410.3c0-7.7,0.1-15.3,0-23c-0.1-3.7,1.4-6.7,5-6.8c3.7-0.1,5.2,3,5.2,6.6c0,15.5,0,31,0,46.5c0,3.6-1.2,6.5-5.3,6.4
	c-4.1-0.1-4.9-3.3-4.9-6.7C421.5,425.6,421.4,417.9,421.4,410.3z"/>
<path d="M456.4,409.3c0-7.8,0.1-15.6,0-23.4c-0.1-3.6,1.5-6,4.9-6.3c3.5-0.3,4.8,2.6,4.8,5.6c0.1,15.9,0.1,31.9,0,47.8
	c0,3-1,6.1-5.1,6c-4.1-0.2-4.6-3.1-4.6-6.3C456.5,424.9,456.4,417.1,456.4,409.3z"/>
<path d="M511.6,608.1c-4.6,0-9.3,0.2-13.9-0.1c-1.5-0.1-3.8-1.6-4-2.8c-0.7-3.1,1.9-3.2,4.2-3.2c9.3,0,18.6-0.2,27.9,0.2
	c1.6,0,3.2,2,4.8,3.1c-1.6,1-3.2,2.6-4.9,2.8C520.9,608.4,516.3,608.1,511.6,608.1z"/>
<g>
	<path class="st0" d="M15.1,422.8c-0.4-5.8-0.5-13.4,0.5-22.9c1.2-11.7,4.7-20,10.2-25c4.9-4.6,11.8-7,20-6.1
		c8.3,0.8,14.6,3.9,18.9,9c6.1,6.9,8.5,17.5,7.3,29.1c-0.3,3.5-0.8,6.8-1.8,9.5L107,420l-1.2,11.9L15.1,422.8z M60.5,415.3
		c0.9-2.5,1.5-5.8,1.9-9.7c1.4-14.3-4.7-23.7-17.4-25c-12.1-1.2-18.8,6.8-20.1,19.9c-0.5,5.2-0.5,9.2-0.1,11.3L60.5,415.3z"/>
	<path class="st0" d="M87.3,305.5l-10.7,34.3l31.8,9.9l11.9-38.2l9.6,3L114.5,364l-88.2-27.4L41.1,289l9.5,3l-11.3,36.2l27.9,8.6
		l10.7-34.3L87.3,305.5z"/>
	<path class="st0" d="M54.7,260.3c1.8-5.9,5.4-13.8,9.4-20.9c6.2-11.1,12.2-17.2,19.5-19.7c5.8-2.1,12.6-1.3,18.9,2.1
		c10.7,5.9,14,16.5,12.2,26.6l0.4,0.2c5.6-5,13.4-5.6,22.9-2.8c12.7,3.6,21.6,6,25.6,6l-6,10.8c-3,0.1-10.9-2-22.3-5.3
		c-12.5-3.8-19.1-1.8-24.7,7.5l-5.4,9.8l35,19.4l-5.8,10.4L54.7,260.3z M97.2,270.2l5.9-10.7c6.2-11.1,4-21.6-5.3-26.7
		c-10.4-5.8-19.2-0.7-25.4,10.2c-2.8,5-4.3,8.9-4.8,10.8L97.2,270.2z"/>
	<path class="st0" d="M167.8,180.5l-23.4,27.3l25.3,21.7l26-30.4l7.6,6.5L169.5,245l-70.1-60.1l32.5-37.9l7.6,6.5l-24.7,28.8
		l22.2,19l23.4-27.3L167.8,180.5z"/>
	<path class="st0" d="M222.4,134.5l-28.1,22.3l20.6,26.1l31.4-24.8l6.2,7.8l-40.7,32.2l-57.3-72.4l39.1-30.9l6.2,7.8L170,126.2
		l18.1,22.9l28.1-22.3L222.4,134.5z"/>
	<path class="st0" d="M222.1,77.4c6.1-4.1,13.6-8.5,22.1-12.5c15.5-7.3,28.2-8.9,38.7-5.5c10.6,3.3,19.5,10.9,25.9,24.4
		c6.4,13.6,7.5,26.8,3.3,38.1c-4.1,11.5-15,21.8-31.3,29.4c-7.7,3.6-14.3,6.3-20,8.2L222.1,77.4z M267.7,146.1c3-0.8,7-2.5,11.2-4.5
		c23-10.9,29.5-29.7,18.9-52.2c-9.2-19.8-26.2-27-49-16.3c-5.6,2.6-9.6,5.1-12.1,7.1L267.7,146.1z"/>
	<path class="st0" d="M377.8,73.7l-35.1,7.5l7,32.6l39.1-8.4l2.1,9.8L340,126l-19.3-90.3l48.8-10.4l2.1,9.8L334.5,43l6.1,28.5
		l35.1-7.5L377.8,73.7z"/>
	<path class="st0" d="M480.1,75.2c-0.1-12.9-0.3-28.4,0.4-39.9h-0.4c-3.6,10.7-8,22-13.2,34.5l-18.2,44.1l-9-0.4l-13-44.6
		c-3.8-13.2-7-25.3-9.1-36.3h-0.3c-0.8,11.5-2.1,26.9-3.6,40.7l-4.2,39.4l-11.4-0.5l10.5-92l15.2,0.7l13.8,45.3
		c3.3,11.5,6,21.8,8,31.5h0.4c2.7-9.2,6.5-19.2,11.1-30.7l18.4-43.9l15.2,0.7l1.7,92.5l-11.6-0.5L480.1,75.2z"/>
	<path class="st0" d="M504,114.9c1.2-4.9,5.4-7.6,10.1-6.4c4.7,1.2,7,5.4,5.8,10.3c-1.2,4.8-5.1,7.6-10.1,6.4
		C505.1,124.1,502.8,119.7,504,114.9z"/>
	<path class="st0" d="M565.2,42.9l11,4.5l-17,41.1l0.4,0.2c3.6-2.3,7.2-4.4,10.5-6.3l39.3-21.2l13.7,5.6l-45.9,23.4l13,62.9l-13-5.4
		l-10.8-53.5l-12,6l-13.5,32.5l-11-4.6L565.2,42.9z"/>
	<path class="st0" d="M652.2,85.2l-48,78.9l-10.2-6.2L642,79L652.2,85.2z"/>
	<path class="st0" d="M683.6,170.4l-27.7-22.9l-21.2,25.7l30.8,25.5l-6.4,7.7l-40-33.1l58.8-71.2l38.4,31.8l-6.4,7.7l-29.3-24.2
		L662,139.9l27.7,22.9L683.6,170.4z"/>
	<path class="st0" d="M680.2,230.9l53.6-81l8,10.1l-26.7,39.5c-7.3,10.9-14,20.5-20.9,29.2l0.2,0.2c10-4.6,21.5-8.8,33.5-13.1
		l45.5-16.1l7.9,10l-92.9,31.5L680.2,230.9z"/>
	<path class="st0" d="M711.2,261.5c4.3-2.6,9.2-1.5,11.6,2.6c2.5,4.1,1.1,8.8-3.2,11.4c-4.2,2.5-9,1.8-11.6-2.6
		C705.5,268.8,706.9,264.1,711.2,261.5z"/>
	<path class="st0" d="M810.8,266.1L759.9,286c-19.3,7.5-24.1,19.3-19.6,30.8c5,12.8,16.6,17.6,35.6,10.2l50.9-19.9l4.4,11.2
		L781,337.9c-26.4,10.3-42.7,0.6-50-18c-6.9-17.6-2-34.8,24.7-45.2l50.7-19.8L810.8,266.1z"/>
	<path class="st0" d="M778.4,373.4l-30.1-5.6l-1.7-12.2l95.7,18.6l2,14.3l-87.2,43.7l-1.7-12.6l27.4-13.7L778.4,373.4z M791.7,402.1
		l25.1-12.6c5.7-2.9,10.9-5,16-7v-0.3c-5.6-0.6-11.4-1.4-17.2-2.4l-27.7-5.3L791.7,402.1z"/>
</g>
<g>
	<path class="st0" d="M40.5,740.6v8.8H14.4v51.3H3.6v-60.1H40.5z"/>
	<path class="st0" d="M50.8,760.3c0-7.7-0.2-13.9-0.5-19.6h9.8l0.5,10.3h0.2c4.5-7.3,11.6-11.7,21.4-11.7
		c14.5,0,25.5,12.3,25.5,30.6c0,21.6-13.2,32.3-27.3,32.3c-8,0-14.9-3.5-18.5-9.4h-0.2v32.7H50.8V760.3z M61.6,776.3
		c0,1.6,0.2,3.1,0.5,4.5c2,7.6,8.6,12.8,16.4,12.8c11.6,0,18.3-9.4,18.3-23.2c0-12.1-6.3-22.4-17.9-22.4c-7.5,0-14.4,5.3-16.5,13.5
		c-0.4,1.4-0.7,3-0.7,4.5V776.3z"/>
	<path class="st0" d="M124.3,740.6l13.2,35.5c1.4,4,2.9,8.7,3.9,12.3h0.2c1.1-3.6,2.4-8.2,3.9-12.5l11.9-35.3h11.6l-16.4,42.9
		c-7.8,20.6-13.2,31.2-20.6,37.6c-5.3,4.7-10.7,6.6-13.4,7.1l-2.7-9.2c2.7-0.9,6.3-2.6,9.6-5.3c3-2.4,6.7-6.6,9.2-12.2
		c0.5-1.1,0.9-2,0.9-2.6c0-0.6-0.2-1.5-0.7-2.9l-22.2-55.4H124.3z"/>
	<path class="st0" d="M184.4,765.9h5.2c9.2,0,15.4-4.2,15.4-9.8c0-5.3-4.8-8.7-11.7-8.7c-4.8,0-10.3,1.6-14.5,4.2l-2.7-6.7
		c6.1-3.7,13-5.5,20-5.5c9.2,0,20.4,4.1,20.4,15.8c0,7.5-6.8,12.3-13.5,13.7v0.2c8.9,0.7,16.4,6.2,16.4,15c0,13-13.3,17.9-26,17.9
		c-7.1,0-14.2-1.9-19.5-4.8l2.9-7.3c4.3,2.4,10.2,4.1,15.9,4.1c9.1,0,14.8-4.3,14.8-10.3c0-8.1-8.4-10.3-17.5-10.3h-5.5V765.9z"/>
	<path class="st0" d="M287.4,770.2c0,22.2-15.4,31.9-29.9,31.9c-16.3,0-28.8-11.9-28.8-30.9c0-20.1,13.2-31.9,29.8-31.9
		C275.7,739.3,287.4,751.8,287.4,770.2z M239.7,770.8c0,13.2,7.6,23.1,18.3,23.1c10.4,0,18.3-9.8,18.3-23.4c0-10.2-5.1-23.1-18-23.1
		C245.3,747.5,239.7,759.4,239.7,770.8z"/>
	<path class="st0" d="M350.6,740.6v60.1h-10.9v-51.4h-28v51.4h-10.8v-60.1H350.6z"/>
	<path class="st0" d="M374.5,772.7c0.2,14.8,9.7,20.9,20.6,20.9c7.8,0,12.5-1.4,16.6-3.1l1.9,7.8c-3.9,1.7-10.4,3.7-20,3.7
		c-18.5,0-29.6-12.2-29.6-30.3s10.7-32.4,28.2-32.4c19.6,0,24.9,17.3,24.9,28.3c0,2.2-0.2,4-0.4,5.1H374.5z M406.6,764.9
		c0.1-7-2.9-17.8-15.2-17.8c-11.1,0-15.9,10.2-16.8,17.8H406.6z"/>
	<path class="st0" d="M430.7,760.3c0-7.7-0.2-13.9-0.5-19.6h9.8l0.5,10.3h0.2c4.5-7.3,11.6-11.7,21.4-11.7
		c14.5,0,25.5,12.3,25.5,30.6c0,21.6-13.2,32.3-27.3,32.3c-8,0-14.9-3.5-18.5-9.4h-0.2v32.7h-10.8V760.3z M441.5,776.3
		c0,1.6,0.2,3.1,0.5,4.5c2,7.6,8.6,12.8,16.4,12.8c11.6,0,18.3-9.4,18.3-23.2c0-12.1-6.3-22.4-17.9-22.4c-7.5,0-14.4,5.3-16.5,13.5
		c-0.4,1.4-0.7,3-0.7,4.5V776.3z"/>
	<path class="st0" d="M507.4,772.7c0.2,14.8,9.7,20.9,20.6,20.9c7.8,0,12.5-1.4,16.6-3.1l1.9,7.8c-3.9,1.7-10.4,3.7-20,3.7
		c-18.5,0-29.6-12.2-29.6-30.3s10.7-32.4,28.2-32.4c19.6,0,24.9,17.3,24.9,28.3c0,2.2-0.2,4-0.4,5.1H507.4z M539.5,764.9
		c0.1-7-2.9-17.8-15.2-17.8c-11.1,0-15.9,10.2-16.8,17.8H539.5z"/>
	<path class="st0" d="M563.4,741.4c4.2-0.7,12.1-1.4,19.1-1.4c10.1,0,26.7,1.6,26.7,15c0,7.5-5.7,12.1-12.5,13.5v0.2
		c8.8,1.2,15.3,6.2,15.3,14.9c0,15.8-19.9,17.8-31.7,17.8c-6.7,0-13.7-0.5-16.9-0.7V741.4z M573.7,793.6c3.1,0.4,5.3,0.5,8.8,0.5
		c7.3,0,18.3-1.7,18.3-10.4c0-8.7-8.7-10.6-19.1-10.6h-8V793.6z M573.8,765.9h8.2c8.1,0,16.4-2.4,16.4-9.4c0-6-5.2-8.8-16.2-8.8
		c-3.6,0-5.8,0.2-8.4,0.5V765.9z"/>
	<path class="st0" d="M680.2,770.2c0,22.2-15.4,31.9-29.9,31.9c-16.3,0-28.8-11.9-28.8-30.9c0-20.1,13.2-31.9,29.8-31.9
		C668.5,739.3,680.2,751.8,680.2,770.2z M632.4,770.8c0,13.2,7.6,23.1,18.3,23.1c10.4,0,18.3-9.8,18.3-23.4c0-10.2-5.1-23.1-18-23.1
		C638,747.5,632.4,759.4,632.4,770.8z"/>
	<path class="st0" d="M698.9,765.9h5.2c9.2,0,15.4-4.2,15.4-9.8c0-5.3-4.8-8.7-11.7-8.7c-4.8,0-10.3,1.6-14.5,4.2l-2.7-6.7
		c6.1-3.7,13-5.5,20-5.5c9.2,0,20.4,4.1,20.4,15.8c0,7.5-6.8,12.3-13.5,13.7v0.2c8.9,0.7,16.4,6.2,16.4,15c0,13-13.3,17.9-26,17.9
		c-7.1,0-14.2-1.9-19.5-4.8l2.9-7.3c4.3,2.4,10.2,4.1,15.9,4.1c9.1,0,14.8-4.3,14.8-10.3c0-8.1-8.4-10.3-17.5-10.3h-5.5V765.9z"/>
	<path class="st0" d="M758.3,740.6v26.1h2.6l22.6-26.1h13.3l-26.2,27.2c9.7,1,15.5,7.5,20.3,18.3c1.6,4,3.7,9.8,6.5,14.7h-11.4
		c-1.6-2.6-3.7-7.3-5.6-12.3c-4.1-9.7-9.7-14.2-19.9-14.2h-2.1v26.5h-10.8v-60.1H758.3z"/>
	<path class="st0" d="M817.1,740.6V766c0,9.6-0.1,15.5-0.6,24.1l0.4,0.1c3.6-7.3,5.7-11.6,9.7-18.5l18.8-31.1h12.8v60.1h-10.4v-25.5
		c0-9.8,0.2-14.9,0.7-24.6H848c-3.9,7.7-6.5,12.5-9.9,18.6c-5.7,9.3-12.3,20.9-18.8,31.4h-12.5v-60.1H817.1z"/>
</g>
<g>
	<path class="st0" d="M10,845.4v37.2h3.4L42,845.4h13l-31.7,38.4c13.8,1.9,19.1,10.3,23.5,21.6c3.1,8.6,5.5,16.3,9.2,23.7H44.4
		c-3-5.7-5.3-13.2-7.6-19.8c-3.9-11.1-9.2-18.6-23.4-18.6H10v38.4H-0.7v-83.7H10z"/>
	<path class="st0" d="M76.8,845.4v35.3c0,13.3-0.2,24.2-1,35.4l0.2,0.1c4.2-8.7,9.4-17.8,15.5-27.7l27.1-43.1h10.8v83.7h-10.2v-35.7
		c0-13.5,0.1-23.5,1-34l-0.4-0.1c-4.1,9.2-9.8,18.9-15.5,28.2l-26.2,41.6H66.6v-83.7H76.8z"/>
	<path class="st0" d="M191.7,889.9h-32.6v30.2h36.3v9.1h-47.1v-83.7h45.2v9.1h-34.4V881h32.6V889.9z"/>
	<path class="st0" d="M209.5,846.6c4.7-1,12.2-1.7,19.8-1.7c10.8,0,17.8,1.9,23,6.1c4.3,3.2,7,8.2,7,14.8c0,8.1-5.3,15.2-14.2,18.4
		v0.2c8,2,17.3,8.6,17.3,21c0,7.2-2.9,12.7-7.1,16.8c-5.8,5.3-15.3,7.8-29,7.8c-7.5,0-13.2-0.5-16.8-1V846.6z M220.3,880.8h9.8
		c11.4,0,18.1-6,18.1-14c0-9.8-7.5-13.7-18.4-13.7c-5,0-7.8,0.4-9.6,0.7V880.8z M220.3,921c2.1,0.4,5.2,0.5,9.1,0.5
		c11.2,0,21.5-4.1,21.5-16.3c0-11.4-9.8-16.2-21.6-16.2h-8.9V921z"/>
	<path class="st0" d="M293.6,934.2l34.7-90.1h8.4l-34.8,90.1H293.6z"/>
	<path class="st0" d="M375.2,845.4l16.6,35.7c2.1,5,4.1,9.8,6.1,14.8h0.2c1.5-4.3,3.1-9.2,5.2-15.2l13-35.3h11.4l-17.5,43
		c-4.6,11.2-9.8,24-15.7,31.8c-5.5,6.8-11.6,10.3-19,10.3c-2.7,0-4.7-0.2-6.1-0.7l1.1-8.8c0.9,0.2,2.1,0.4,4,0.4
		c8.7-0.1,13.8-8.4,16.4-14.4c0.9-1.9,0.6-3.1-0.4-5.1l-27.8-56.4H375.2z"/>
	<path class="st0" d="M447.6,845.4v37.2h3.4l28.7-37.2h13L461,883.8c13.8,1.9,19.1,10.3,23.5,21.6c3.1,8.6,5.5,16.3,9.2,23.7H482
		c-3-5.7-5.3-13.2-7.6-19.8c-3.9-11.1-9.2-18.6-23.4-18.6h-3.5v38.4h-10.7v-83.7H447.6z"/>
	<path class="st0" d="M504.2,846.4c5.2-0.9,12.1-1.6,20.7-1.6c10.7,0,18.5,2.5,23.5,7c4.6,4,7.3,10.1,7.3,17.5
		c0,7.6-2.2,13.5-6.5,17.9c-5.7,6.1-15,9.2-25.6,9.2c-3.2,0-6.2-0.1-8.7-0.7v33.5h-10.8V846.4z M515,886.8c2.4,0.6,5.3,0.9,8.9,0.9
		c13,0,21-6.3,21-17.9c0-11.1-7.8-16.4-19.8-16.4c-4.7,0-8.3,0.4-10.2,0.9V886.8z"/>
	<path class="st0" d="M573.4,902.8l-8.7,26.3h-11.2l28.5-83.7h13l28.6,83.7h-11.6l-8.9-26.3H573.4z M600.9,894.4l-8.2-24.1
		c-1.9-5.5-3.1-10.4-4.3-15.3h-0.2c-1.2,5-2.6,10.1-4.2,15.2l-8.2,24.2H600.9z"/>
	<path class="st0" d="M646.1,845.4v35.3c0,13.3-0.2,24.2-1,35.4l0.2,0.1c4.2-8.7,9.4-17.8,15.5-27.7l27.1-43.1h10.8v83.7h-10.2
		v-35.7c0-13.5,0.1-23.5,1-34l-0.4-0.1c-4.1,9.2-9.8,18.9-15.5,28.2l-26.2,41.6h-11.6v-83.7H646.1z"/>
	<path class="st0" d="M728.5,845.4v35H769v-35h10.9v83.7H769v-39.3h-40.5v39.3h-10.8v-83.7H728.5z"/>
	<path class="st0" d="M812.2,902.8l-8.7,26.3h-11.2l28.5-83.7h13l28.6,83.7h-11.6l-8.9-26.3H812.2z M839.7,894.4l-8.2-24.1
		c-1.9-5.5-3.1-10.4-4.3-15.3h-0.2c-1.2,5-2.6,10.1-4.2,15.2l-8.2,24.2H839.7z"/>
</g>
</svg>
