<?xml version="1.0" encoding="utf-8"?>
<!-- Generator: Adobe Illustrator 23.0.1, SVG Export Plug-In . SVG Version: 6.00 Build 0)  -->
<svg version="1.1" id="Layer_1" xmlns="http://www.w3.org/2000/svg" xmlns:xlink="http://www.w3.org/1999/xlink" x="0px" y="0px"
	 viewBox="0 0 113.39 113.39" style="enable-background:new 0 0 113.39 113.39;" xml:space="preserve">
<style type="text/css">
	.st0{fill:#89B940;}
	.st1{fill:#FFFFFF;}
	.st2{fill:#558CBE;}
	.st3{fill:#EEEEEE;}
</style>
<path class="st0" d="M1.23,56.56C1.28,25.97,26.15,1.2,56.77,1.23c30.72,0.03,55.45,24.92,55.39,55.72
	c-0.07,30.63-25.01,55.26-55.91,55.2C25.94,112.1,1.18,87.08,1.23,56.56z"/>
<path class="st1" d="M56.36,113.39c-0.04,0-0.07,0-0.11,0C25.18,113.33-0.05,87.83,0,56.56l0,0C0.05,25.36,25.48,0,56.7,0
	c0.02,0,0.04,0,0.06,0c15.16,0.02,29.38,5.92,40.06,16.63c10.71,10.75,16.59,25.07,16.56,40.32c-0.03,15.14-5.98,29.34-16.76,39.98
	C85.88,107.55,71.59,113.39,56.36,113.39z M2.46,56.56c-0.05,29.92,24.08,54.31,53.79,54.36c0.03,0,0.07,0,0.11,0
	c30.03,0,54.5-24.19,54.57-53.97c0.03-14.6-5.59-28.3-15.84-38.58C84.87,8.13,71.27,2.48,56.77,2.46c-0.02,0-0.04,0-0.06,0
	C26.84,2.46,2.51,26.72,2.46,56.56L2.46,56.56z"/>
<g>
	<path class="st2" d="M78.25,95.39c1.98,0.32,3.55-0.4,4.93-1.74c3.47-3.38,6.88-6.81,10.45-10.09c1.74-1.6,1.25-2.41-0.54-3.37
		c-3.9-2.09-7.72-4.33-11.61-6.46c-6.71-3.68-5.28-3.69-10.45,1.3c-0.06,0.06-0.12,0.11-0.18,0.17c-2.06,2.32-4.43,2.43-7.12,1.14
		c-3.58-1.72-6.83-3.9-9.77-6.56c-5.8-5.23-11.31-10.72-15.29-17.55c-3.34-5.74-3.24-6.84,1.34-11.51c0.52-0.53,1-1.1,1.56-1.57
		c1.29-1.09,1.35-2.31,0.59-3.73c-2.85-5.27-5.71-10.52-8.48-15.83c-0.96-1.84-1.8-1.64-3.07-0.35c-3.46,3.51-6.99,6.94-10.48,10.41
		c-1.3,1.29-1.78,2.86-1.69,4.7c0.24,5.17,1.57,10.09,3.89,14.63c8.66,16.93,21.48,30.07,37.5,40.13
		C65.44,92.63,71.62,94.75,78.25,95.39z"/>
	<path class="st1" d="M79.15,95.71c-0.31,0-0.62-0.03-0.94-0.08c-6.63-0.64-12.86-2.77-18.53-6.32
		C43.06,78.88,30.41,65.34,22.09,49.08c-2.36-4.62-3.68-9.58-3.92-14.73c-0.09-2.02,0.48-3.61,1.76-4.88c1.11-1.1,2.23-2.2,3.34-3.3
		c2.35-2.32,4.78-4.72,7.14-7.11c0.58-0.58,1.26-1.16,1.97-1.06c0.55,0.08,1.02,0.55,1.5,1.47c2.27,4.37,4.65,8.77,6.96,13.02
		l1.52,2.81c0.87,1.61,0.66,2.93-0.64,4.03c-0.37,0.31-0.72,0.68-1.05,1.04c-0.16,0.17-0.33,0.35-0.49,0.52
		c-4.5,4.59-4.61,5.53-1.3,11.21c4.04,6.93,9.71,12.5,15.25,17.49c2.91,2.63,6.18,4.82,9.72,6.52c2.8,1.35,4.97,1,6.83-1.08
		c0.04-0.05,0.09-0.09,0.13-0.13l0.06-0.05c0.62-0.6,1.15-1.13,1.6-1.59c3.05-3.06,3.19-3.08,7.45-0.69
		c0.5,0.28,1.05,0.59,1.68,0.93c1.69,0.93,3.39,1.89,5.04,2.82c2.14,1.21,4.36,2.46,6.56,3.64c0.85,0.46,1.65,0.98,1.74,1.74
		c0.07,0.59-0.29,1.24-1.15,2.03c-2.68,2.47-5.32,5.06-7.88,7.58c-0.85,0.84-1.71,1.68-2.56,2.51
		C82.05,95.09,80.67,95.71,79.15,95.71z M32.21,18.48c-0.37,0-0.82,0.29-1.44,0.92c-2.36,2.39-4.79,4.79-7.14,7.11
		c-1.11,1.1-2.23,2.2-3.34,3.3c-1.19,1.18-1.71,2.62-1.62,4.51c0.23,5.08,1.53,9.97,3.87,14.53c8.28,16.18,20.87,29.65,37.41,40.03
		c5.61,3.52,11.77,5.62,18.32,6.25l0.02,0c1.76,0.28,3.26-0.25,4.72-1.68c0.86-0.83,1.71-1.67,2.56-2.51
		c2.56-2.51,5.21-5.12,7.89-7.59c0.72-0.66,1.05-1.19,1-1.6c-0.05-0.42-0.51-0.85-1.49-1.37c-2.21-1.19-4.43-2.44-6.57-3.65
		c-1.65-0.93-3.35-1.89-5.04-2.81c-0.63-0.34-1.19-0.66-1.68-0.94c-4.01-2.25-4.01-2.25-6.86,0.61c-0.46,0.46-0.99,0.99-1.61,1.59
		l-0.07,0.07c-0.03,0.03-0.06,0.06-0.09,0.09c-1.99,2.24-4.42,2.63-7.41,1.2c-3.58-1.72-6.89-3.94-9.83-6.59
		c-5.56-5.02-11.27-10.62-15.34-17.61c-3.41-5.86-3.27-7.07,1.38-11.8c0.16-0.17,0.32-0.34,0.48-0.51c0.34-0.37,0.7-0.75,1.09-1.08
		c1.13-0.95,1.29-2.01,0.53-3.42l-1.52-2.8c-2.31-4.26-4.69-8.66-6.96-13.03c-0.4-0.76-0.77-1.16-1.14-1.21
		C32.28,18.48,32.24,18.48,32.21,18.48z"/>
</g>
<g>
	<path class="st3" d="M78.25,95.39c-6.63-0.64-12.81-2.76-18.43-6.29c-16.03-10.06-28.84-23.2-37.5-40.13
		c-2.32-4.54-3.66-9.46-3.89-14.63c-0.08-1.84,0.39-3.4,1.69-4.7c3.5-3.47,7.02-6.9,10.48-10.41c1.27-1.29,2.12-1.49,3.07,0.35
		c2.76,5.31,5.63,10.57,8.48,15.83c0.77,1.42,0.7,2.64-0.59,3.73C41,39.62,40.52,40.19,40,40.72c-4.58,4.66-4.68,5.77-1.34,11.51
		c3.98,6.83,9.49,12.32,15.29,17.55c2.94,2.65,6.19,4.84,9.77,6.56c2.68,1.29,5.05,1.18,7.12-1.14c0.05-0.06,0.12-0.11,0.18-0.17
		c5.17-4.99,3.73-4.98,10.45-1.3c3.88,2.13,7.71,4.37,11.61,6.46c1.79,0.96,2.28,1.77,0.54,3.37c-3.56,3.28-6.98,6.71-10.45,10.09
		C81.8,94.99,80.22,95.71,78.25,95.39z"/>
</g>
</svg>
